<?xml version="1.0" encoding="UTF-8"?>
<svg id="_图层_1" data-name="图层 1" xmlns="http://www.w3.org/2000/svg" viewBox="0 0 19.11 19.11">
  <g id="icon-1">
    <path d="m19.11,9.56c0,5.28-4.28,9.55-9.56,9.55S0,14.84,0,9.56,4.28,0,9.55,0s9.56,4.28,9.56,9.56Z" style="fill: #000; stroke-width: 0px;"/>
    <path d="m16.05,8.75L6.66,3.33c-.63-.36-1.41.09-1.41.81v10.84c0,.72.78,1.17,1.41.81l9.39-5.42c.62-.36.62-1.26,0-1.62Z" style="fill: #fff; stroke-width: 0px;"/>
    <g>
      <path d="m10.09,8.06h.56v.88h.01c.09-.18.32-.29.52-.29.57,0,.62.42.62.67v1.1h-.56v-1c0-.17-.06-.3-.28-.3-.21,0-.31.18-.31.37v.94h-.56v-2.37Z" style="fill: #000; stroke-width: 0px;"/>
      <path d="m12.14,8.7h.55v.3h.01c.08-.22.28-.34.52-.34.04,0,.09,0,.13.01v.51c-.08-.02-.14-.03-.22-.03-.28,0-.42.19-.42.41v.85h-.56v-1.71h-.01Z" style="fill: #000; stroke-width: 0px;"/>
      <path d="m13.97,9.86c0,.09.04.15.09.19s.13.06.21.06c.11,0,.27-.05.27-.18s-.18-.16-.28-.18c-.35-.09-.8-.1-.8-.56,0-.41.45-.53.79-.53.37,0,.78.11.79.56h-.52c0-.07-.02-.12-.07-.15-.04-.03-.1-.04-.18-.04-.09,0-.24.01-.24.13,0,.16.38.2.64.25.34.07.44.32.44.47,0,.46-.44.61-.82.61-.41,0-.83-.14-.84-.62h.52v-.01Z" style="fill: #000; stroke-width: 0px;"/>
    </g>
    <text transform="translate(6.036 10.473)" style="fill: #000; font-family: ArialMT, Arial; font-size: 3.511px; isolation: isolate;"><tspan x="0" y="0">20</tspan></text>
  </g>
</svg>