<?xml version="1.0" encoding="UTF-8"?>
<svg id="_图层_1" data-name="图层 1" xmlns="http://www.w3.org/2000/svg" viewBox="0 0 15.6 15.6">
  <g id="icon-4">
    <path d="m7.8,0C3.49,0,0,3.49,0,7.79s3.49,7.81,7.8,7.81,7.8-3.5,7.8-7.81c-.01-4.31-3.5-7.79-7.8-7.79Z" style="fill: #000; stroke-width: 0px;"/>
    <g>
      <path d="m7.94,2.56c-.23,0-.41.18-.41.41s.18.41.41.41c2.83,0,5.08,2.58,4.5,5.51-.35,1.81-1.77,3.23-3.58,3.58-2.93.57-5.51-1.67-5.51-4.5,0-.88.26-1.75.73-2.48.02-.04.08-.05.11-.02l.53.45c.11.1.29.03.3-.12l.2-1.92c.02-.18-.15-.32-.33-.27l-1.8.56c-.14.04-.18.22-.06.32l.42.36c.03.02.03.07.01.1-1.19,1.76-1.31,4.17.05,6.15.74,1.08,1.87,1.85,3.14,2.14,3.54.82,6.7-1.86,6.7-5.26,0-2.99-2.42-5.42-5.41-5.42Z" style="fill: #fff; stroke-width: 0px;"/>
      <path d="m10.12,10.12c-.08,0-.15-.02-.22-.06l-2.38-1.37c-.14-.08-.22-.23-.22-.39v-3.46c0-.25.2-.45.45-.45s.45.2.45.45v3.2l2.16,1.24c.21.12.29.4.16.61-.1.15-.25.23-.4.23Z" style="fill: #fff; stroke-width: 0px;"/>
    </g>
  </g>
</svg>