<?xml version="1.0" encoding="UTF-8"?>
<svg id="_图层_1" data-name="图层 1" xmlns="http://www.w3.org/2000/svg" viewBox="0 0 20.35 20.34">
  <g id="icon-2">
    <g>
      <path d="m10.18,0C4.55,0,0,4.55,0,10.16s4.55,10.18,10.18,10.18,10.17-4.56,10.17-10.18c0-5.61-4.56-10.16-10.17-10.16Z" style="fill: #000; stroke-width: 0px;"/>
      <g>
        <path d="m15.68,8.25H4.68c-.15,0-.28.12-.28.27v4.14c0,.15.13.27.28.27h11c.15,0,.27-.12.27-.27v-4.14c0-.15-.12-.27-.27-.27Z" style="fill: #fff; stroke-width: 0px;"/>
        <g>
          <path d="m10.18,10.47c-.49,0-.88-.4-.88-.88v-2.45l-.38.35c-.14.13-.32.2-.51.2-.21,0-.41-.09-.56-.24-.13-.14-.2-.32-.2-.51,0-.21.09-.41.24-.56,0,0,1.67-1.55,1.71-1.59.05-.05.13-.1.25-.16.1-.04.22-.07.33-.07s.23.02.33.07c.09.04.15.08.19.11.08.06.12.1.17.15l1.6,1.49c.31.29.32.77.04,1.07-.14.15-.34.24-.56.24h0c-.19,0-.37-.07-.51-.2l-.38-.35v2.45c0,.49-.4.88-.88.88Z" style="fill: #fff; stroke-width: 0px;"/>
          <path d="m10.18,4.82c.08,0,.16.02.23.05.06.03.11.05.14.08.07.05.11.09.15.13l1.6,1.48c.2.19.22.51.03.71-.1.11-.23.16-.37.16-.12,0-.25-.04-.34-.13l-.8-.75v3.03c0,.35-.28.63-.63.63s-.63-.28-.63-.63v-3.03l-.8.75c-.1.09-.22.13-.34.13-.14,0-.27-.05-.37-.16-.09-.1-.13-.22-.13-.34,0-.13.05-.27.16-.37l1.6-1.48c.03-.03.06-.06.1-.09.04-.04.1-.08.19-.12.04-.03.12-.05.21-.05q-.01,0,0,0h0m0-.51h0c-.19,0-.34.05-.43.09-.15.06-.24.13-.32.2-.05.04-.09.08-.13.12l-1.59,1.47c-.21.19-.32.46-.32.74,0,.26.1.5.27.69.19.21.46.32.74.32.23,0,.46-.08.64-.23v1.87c0,.63.51,1.14,1.14,1.14s1.14-.51,1.14-1.14v-1.86c.18.15.4.23.64.23.28,0,.55-.12.74-.32.38-.41.35-1.05-.05-1.43l-1.6-1.48c-.05-.05-.1-.1-.19-.16s-.17-.11-.26-.15c-.09-.05-.24-.1-.42-.1h0Z" style="fill: #000; stroke-width: 0px;"/>
        </g>
      </g>
    </g>
  </g>
</svg>