<?xml version="1.0" encoding="UTF-8"?>
<svg id="_图层_1" data-name="图层 1" xmlns="http://www.w3.org/2000/svg" viewBox="0 0 20.34 20.34">
  <g id="icon-1">
    <g>
      <path d="m10.17,0C4.55,0,0,4.55,0,10.17s4.55,10.17,10.17,10.17,10.17-4.55,10.17-10.17c0-5.61-4.55-10.17-10.17-10.17Z" style="fill: #000; stroke-width: 0px;"/>
      <g>
        <path d="m12.88,10.73l-1.77,1.03c-.43.25-.99.1-1.24-.33l-2.4-4.14,3.34-1.94,2.4,4.14c.25.44.11.99-.33,1.24Z" style="fill: #fff; stroke-width: 0px;"/>
        <rect x="6.851" y="3.359" width="2.77" height="2.85" transform="translate(-1.289 4.78) rotate(-30.127)" style="fill: #fff; stroke-width: 0px;"/>
        <path d="m11.91,11.22l1.7,2.68c2.29,3.59-4.04,5.69-9.08.23" style="fill: none; stroke: #fff; stroke-linecap: round; stroke-miterlimit: 10;"/>
      </g>
    </g>
  </g>
</svg>