<?xml version="1.0" encoding="UTF-8"?>
<svg id="_图层_1" data-name="图层 1" xmlns="http://www.w3.org/2000/svg" viewBox="0 0 18.42 18.42">
  <g id="icon-2">
    <path d="m18.42,9.21c0,5.09-4.12,9.21-9.21,9.21S0,14.3,0,9.21,4.12,0,9.21,0c5.08-.01,9.21,4.12,9.21,9.21" style="fill: #000; stroke-width: 0px;"/>
    <path d="m3.89,9.95l-.1,1.24-.88.92.17-2.38.34-.34.47.56Zm2.47,2.33h-3.3l.88-.91h1.68l.74.91Zm-3.18-3.59l.2-2.56.74.92-.11,1.41-.56.58-.27-.35Z" style="fill: #fff; stroke-width: 0px;"/>
    <path d="m8.26,9.95l-.1,1.24-.88.92.18-2.38.34-.34.46.56Zm2.47,2.34h-3.3l.88-.92h1.68l.74.92Zm-3.18-3.6l.18-2.38.74.91-.09,1.24-.56.58-.27-.35Zm3.66-2.56l-.88.91h-1.68l-.74-.91h3.3Zm-1.06,2.62l.38.46-.45.46h-1.73l-.37-.46.44-.46h1.73Z" style="fill: #fff; stroke-width: 0px;"/>
    <path d="m12.63,9.95l-.09,1.24-.88.92.17-2.38.34-.34.46.56Zm-.83,2.33l.88-.91h1.53l.38.46-.45.46h-2.34v-.01Zm.12-3.59l.18-2.38.75.92-.1,1.24-.56.58-.27-.36Zm3.07-2.11l-.45.46h-1.53l-.74-.91h2.34l.38.45Zm.2,4.61l-.45.46-.37-.46.1-1.24.55-.57.27.34-.1,1.47Zm.19-2.5l-.34.35-.46-.58.09-1.24.45-.46.37.46-.11,1.47Z" style="fill: #fff; stroke-width: 0px;"/>
  </g>
</svg>