<?xml version="1.0" encoding="UTF-8"?>
<svg id="_图层_1" data-name="图层 1" xmlns="http://www.w3.org/2000/svg" viewBox="0 0 12.77 12.75">
  <g id="icon-4" transform="rotate(90) translate(0 -12.75)">
    <path d="m0,6.37c0,3.52,2.85,6.38,6.38,6.38s6.39-2.86,6.39-6.38S9.91,0,6.38,0C2.86,0,0,2.85,0,6.37Z" style="fill: #000; stroke-width: 0px;"/>
    <g>
      <path d="m9.51,6.47c-.38-.05-.7-.04-.68-.38.01-.25.08-.63.08-.82,0-.31-.1-.51-.51-.51-.32,0-.38-.33-.58-.28-.21.05-.24.16-.39-.01-.26-.28-.63.24-.61-.04.03-.44-.26-.62-.55-.43-.16.11-.51.35-.77.52-.15-.02-.3-.03-.45-.03-1.63,0-2.81,1.33-2.81,2.97s1.18,2.97,2.81,2.97c.51,0,.96-.12,1.38-.35.69-.37,1.09-.49,2.44-.35.26.03.42-.09.48-.39.13-.59.54-2.39.54-2.39.07-.33-.19-.45-.38-.48Z" style="fill: #fff; stroke-width: 0px;"/>
      <g>
        <path d="m6.43,2.45h0c.08.09.21.11.31.05.47-.3,1.04-.4,1.58-.26.55.15.99.51,1.25,1,.06.11.18.16.29.11h0c.13-.05.19-.2.12-.32-.32-.62-.87-1.07-1.55-1.25-.67-.18-1.38-.06-1.96.32-.1.08-.12.24-.04.35Z" style="fill: #fff; stroke-width: 0px;"/>
        <path d="m8.06,3.29c.17.05.32.15.42.29.06.09.18.12.28.08h0c.14-.05.2-.22.11-.34-.16-.24-.41-.41-.69-.48-.29-.08-.58-.05-.84.08-.13.06-.16.24-.07.35h0c.07.08.18.11.28.07.15-.08.33-.1.51-.05Z" style="fill: #fff; stroke-width: 0px;"/>
      </g>
    </g>
  </g>
</svg>