<?xml version="1.0" encoding="UTF-8"?>
<svg id="_图层_1" data-name="图层 1" xmlns="http://www.w3.org/2000/svg" viewBox="0 0 27.17 27.17">
  <g id="icon-4" transform="rotate(90) translate(0 -27.17)">
    <path d="m0,13.58c0,7.49,6.09,13.59,13.58,13.59s13.59-6.09,13.59-13.59S21.07,0,13.58,0,0,6.09,0,13.58" style="fill: #000; stroke-width: 0px;"/>
    <g>
      <path d="m22.3,13.21c0-1.76-2.1-4.92-4.96-6.3-.7.09-1.34.2-1.92.32,3.33.61,5.95,4.45,5.95,5.98,0,1.41-1.46,3.75-3.6,5.07.61.01,1.24-.08,1.77-.18.84-.63,2.76-2.92,2.76-4.89Z" style="fill: #fff; stroke: #fff; stroke-miterlimit: 10; stroke-width: .009px;"/>
      <path d="m4.89,13.22c-.01.12-.01.25-.01.37,0,3.73,2.5,6.93,5.98,7.92-1.64-.85-2.09-2.6-2.09-2.6,1.91,2.73,4.52,2.9,5.23,2.9,2.83-.18,5.66-1.38,7.26-3.32,0,0-5.51,1.98-6.71-1.23-1.16-3.12-1.97-6.3-5.1-7.12.76-.77,2.22-2.08,3.89-2.6,0,0-.65-.05-1.55.06,1.38-.71,3.44-1.36,6.51-1.62,0,0-2.11-.63-4.82-.63-4.88.01-8.39,3.33-8.59,7.87Zm6.65,1.28c1.11,2.12,2.03,3.56,3.29,4.35,0,0-2.29-.41-3.6-3.15-1.06-2.22-1.89-2.23-1.89-2.23,0,0,1.35-.57,2.2,1.03Z" style="fill: #fff; stroke: #fff; stroke-miterlimit: 10; stroke-width: .009px;"/>
    </g>
  </g>
</svg>