<?xml version="1.0" encoding="UTF-8"?>
<svg id="_图层_1" data-name="图层 1" xmlns="http://www.w3.org/2000/svg" viewBox="0 0 19.11 19.11">
  <g id="icon-6">
    <path d="m9.56,0C4.28,0,0,4.27,0,9.55s4.28,9.56,9.56,9.56,9.55-4.28,9.55-9.56c.01-5.27-4.27-9.55-9.55-9.55Z" style="fill: #000; stroke-width: 0px;"/>
    <g>
      <path d="m13.94,6.94h-3.53c-.38,0-.68.31-.68.68v6.84c0,.38.31.68.68.68h3.53c.38,0,.68-.31.68-.68v-6.84c0-.38-.3-.68-.68-.68Zm-3.63,6.6v-5.35h3.73v5.35h-3.73Zm2.64.81c0,.12-.1.23-.23.23h-1.1c-.12,0-.23-.1-.23-.23s.1-.23.23-.23h1.1c.13,0,.23.1.23.23Zm-1.16-6.74c0-.11.09-.19.19-.19h.39c.11,0,.19.09.19.19,0,.11-.09.19-.19.19h-.39c-.11.01-.19-.08-.19-.19Z" style="fill: #fff; stroke-width: 0px;"/>
      <path d="m12.9,3.97h-7.48c-.35,0-.64.29-.64.64v9.88c0,.36.29.65.65.65h4.38c-.25-.15-.41-.43-.41-.74v-.43h-3.77V5.14h7.07v1.51h.85v-2.04c-.01-.35-.29-.64-.65-.64Zm-7.18.82c-.13,0-.23-.11-.23-.23,0-.13.11-.23.23-.23.13,0,.23.1.23.23.01.12-.1.23-.23.23Z" style="fill: #fff; stroke-width: 0px;"/>
    </g>
  </g>
</svg>