<?xml version="1.0" encoding="UTF-8"?>
<svg id="_图层_1" data-name="图层 1" xmlns="http://www.w3.org/2000/svg" viewBox="0 0 21.04 21.04">
  <g id="icon-3">
    <path d="m10.52,0C4.71,0,0,4.71,0,10.52s4.71,10.52,10.52,10.52,10.52-4.71,10.52-10.52S16.33,0,10.52,0Z" style="fill: #000; stroke-width: 0px;"/>
    <g>
      <path d="m5.83,10.29l-1.68-2.18c-.28-.37-.21-.89.15-1.17l.21-.16c.37-.28.89-.21,1.17.15l1.68,2.18c.28.37.21.89-.15,1.17l-.21.16c-.36.29-.89.22-1.17-.15Z" style="fill: #fff; stroke-width: 0px;"/>
      <path d="m15.2,10.29l1.68-2.18c.28-.37.21-.89-.15-1.17l-.21-.16c-.37-.28-.89-.21-1.17.15l-1.68,2.18c-.28.37-.21.89.15,1.17l.21.16c.36.29.89.22,1.17-.15Z" style="fill: #fff; stroke-width: 0px;"/>
      <path d="m9.49,8.69v-2.62c0-.49.4-.89.89-.89h.28c.49,0,.89.4.89.89v2.62c0,.49-.4.89-.89.89h-.28c-.5,0-.89-.4-.89-.89Z" style="fill: #fff; stroke-width: 0px;"/>
      <path d="m14.75,14.48c-.17-2.34-2.11-4.2-4.5-4.2s-4.32,1.85-4.5,4.2h9Z" style="fill: #fff; stroke-width: 0px;"/>
    </g>
  </g>
</svg>