<?xml version="1.0" encoding="UTF-8"?>
<svg id="_图层_1" data-name="图层 1" xmlns="http://www.w3.org/2000/svg" viewBox="0 0 19.51 19.5">
  <g id="icon-2">
    <path d="m9.76,0C4.36,0,0,4.36,0,9.74s4.37,9.76,9.76,9.76,9.75-4.37,9.75-9.76S15.14,0,9.76,0Z" style="fill: #000; stroke-width: 0px;"/>
    <g>
      <path d="m10.81,4.9c1.97.38,3.53,1.92,3.91,3.89h2.11c-.43-3.12-2.9-5.58-6.02-6v2.11h0Z" style="fill: #fff; stroke-width: 0px;"/>
      <path d="m5.02,8.79c.39-1.97,1.94-3.51,3.91-3.89v-2.11c-3.13.42-5.59,2.88-6.02,6h2.11Z" style="fill: #fff; stroke-width: 0px;"/>
      <path d="m8.93,14.6c-1.98-.38-3.54-1.95-3.92-3.93h-2.11c.41,3.14,2.89,5.62,6.02,6.04v-2.11h.01Z" style="fill: #fff; stroke-width: 0px;"/>
      <path d="m14.73,10.67c-.38,1.99-1.93,3.55-3.92,3.93v2.11c3.13-.42,5.61-2.9,6.02-6.04h-2.1Z" style="fill: #fff; stroke-width: 0px;"/>
    </g>
    <path d="m9.45,11.59h-3.13v-1.28l2.93-4.46h1.66v4.46h.92v1.28h-.92v1.44h-1.46v-1.44h0Zm0-3.75h-.02l-1.59,2.47h1.61v-2.47h0Z" style="fill: #fff; stroke-width: 0px;"/>
  </g>
</svg>