<?xml version="1.0" encoding="UTF-8"?>
<svg id="_图层_2" data-name="图层 2" xmlns="http://www.w3.org/2000/svg" viewBox="0 0 19.37 19.36">
  <g id="icon-3">
    <path d="m9.69,0C4.34,0,0,4.33,0,9.67s4.33,9.69,9.69,9.69,9.68-4.34,9.68-9.69c0-5.35-4.34-9.67-9.68-9.67Z" style="fill: #000; stroke-width: 0px;"/>
    <g>
      <path d="m7.75,11.64c-.63-.63-1.17-1.29-1.62-1.96l1.22-1.21c.08-.08.12-.19.12-.3,0-.12-.06-.24-.15-.33l-1.01-1.34c-.21-.21-.4-.4-.9-.23-.44.15-1.26.88-1.26,1.94,0,1.13.98,2.82,2.55,4.4l.03.03.01.01c1.61,1.6,3.31,2.59,4.44,2.59h0c1.06,0,1.78-.82,1.94-1.26.17-.5-.02-.69-.24-.91l-1.33-1c-.09-.09-.22-.15-.34-.15h0c-.11,0-.21.04-.29.12l-1.21,1.22c-.67-.45-1.33-.99-1.96-1.62" style="fill: #fff; stroke-width: 0px;"/>
      <path d="m9.23,5.47c-.02-.26-.05-.5-.07-.78,1.65-.12,3.04.42,4.16,1.59,1.1,1.15,1.62,3.21,1.16,4.46-.24-.05-.48-.11-.72-.16.54-2.88-1.69-5.32-4.53-5.11" style="fill: #fff; stroke-width: 0px;"/>
      <path d="m9.72,6.94c1.66-.16,3.06,1.44,2.61,2.97-.24-.05-.49-.1-.75-.16.09-.56-.03-1.05-.4-1.47-.37-.41-.84-.57-1.4-.56-.01-.27-.03-.52-.06-.78" style="fill: #fff; stroke-width: 0px;"/>
      <path d="m10.45,9.83c-.05-.01-.09-.01-.13-.02-.59-.12-.74-.07-.7-.93.54-.03.88.36.83.95" style="fill: #fff; stroke-width: 0px;"/>
    </g>
  </g>
</svg>