<svg xmlns="http://www.w3.org/2000/svg" xmlns:xlink="http://www.w3.org/1999/xlink" viewBox="0,0,256,256" width="48px" height="48px"><g fill="#ffffff" fill-rule="nonzero" stroke="none" stroke-width="1" stroke-linecap="butt" stroke-linejoin="miter" stroke-miterlimit="10" stroke-dasharray="" stroke-dashoffset="0" font-family="none" font-weight="none" font-size="none" text-anchor="none" style="mix-blend-mode: normal"><g transform="scale(10.66667,10.66667)"><path d="M18,21h-12c-1.657,0 -3,-1.343 -3,-3v-12c0,-1.657 1.343,-3 3,-3h12c1.657,0 3,1.343 3,3v12c0,1.657 -1.343,3 -3,3z" opacity="0.35"></path><path d="M16,11c-0.605,0 -1.332,-0.266 -2,-0.715v3.715c0,1.654 -1.346,3 -3,3c-1.654,0 -3,-1.346 -3,-3c0,-1.654 1.346,-3 3,-3v2c-0.552,0 -1,0.449 -1,1c0,0.551 0.448,1 1,1c0.552,0 1,-0.449 1,-1v-7h2c0,1.005 1.471,2 2,2z"></path><circle cx="16" cy="10" r="1"></circle><circle cx="13" cy="7" r="1"></circle></g></g></svg>