<svg xmlns="http://www.w3.org/2000/svg" xmlns:xlink="http://www.w3.org/1999/xlink" viewBox="0,0,256,256" width="24px" height="24px"><g fill="#191919" fill-rule="nonzero" stroke="none" stroke-width="1" stroke-linecap="butt" stroke-linejoin="miter" stroke-miterlimit="10" stroke-dasharray="" stroke-dashoffset="0" font-family="none" font-weight="none" font-size="none" text-anchor="none" style="mix-blend-mode: normal"><g transform="scale(10.66667,10.66667)"><path d="M8,3c-2.75241,0 -5,2.24759 -5,5v8c0,2.75241 2.24759,5 5,5h8c2.75241,0 5,-2.24759 5,-5v-8c0,-2.75241 -2.24759,-5 -5,-5zM8,4.5h8c1.94159,0 3.5,1.55841 3.5,3.5v8c0,1.94159 -1.55841,3.5 -3.5,3.5h-8c-1.94159,0 -3.5,-1.55841 -3.5,-3.5v-8c0,-1.94159 1.55841,-3.5 3.5,-3.5zM17.25,6c-0.41421,0 -0.75,0.33579 -0.75,0.75c0,0.41421 0.33579,0.75 0.75,0.75c0.41421,0 0.75,-0.33579 0.75,-0.75c0,-0.41421 -0.33579,-0.75 -0.75,-0.75zM12,7c-1.60417,0 -2.90226,0.62857 -3.74805,1.58008c-0.84579,0.95151 -1.25195,2.19075 -1.25195,3.41992c0,1.22917 0.40617,2.46841 1.25195,3.41992c0.84579,0.95151 2.14388,1.58008 3.74805,1.58008c1.60417,0 2.90226,-0.62857 3.74805,-1.58008c0.84579,-0.95151 1.25195,-2.19075 1.25195,-3.41992c0,-1.22917 -0.40617,-2.46841 -1.25195,-3.41992c-0.84579,-0.95151 -2.14388,-1.58008 -3.74805,-1.58008zM12,8.5c1.22917,0 2.05608,0.43393 2.62695,1.07617c0.57088,0.64224 0.87305,1.528 0.87305,2.42383c0,0.89583 -0.30217,1.78159 -0.87305,2.42383c-0.57088,0.64224 -1.39779,1.07617 -2.62695,1.07617c-1.22917,0 -2.05607,-0.43393 -2.62695,-1.07617c-0.57088,-0.64224 -0.87305,-1.528 -0.87305,-2.42383c0,-0.89583 0.30217,-1.78159 0.87305,-2.42383c0.57088,-0.64224 1.39779,-1.07617 2.62695,-1.07617z"></path></g></g></svg>