<?xml version="1.0" encoding="UTF-8"?>
<svg id="_图层_1" data-name="图层 1" xmlns="http://www.w3.org/2000/svg" viewBox="0 0 12.78 12.76">
  <g id="icon-3">
    <ellipse cx="6.39" cy="6.38" rx="6.39" ry="6.38" style="fill: #000; stroke-width: 0px;"/>
    <g>
      <path d="m9.44,9.69H3.34c-1.14,0-2.06-.92-2.06-2.06v-2.49c0-1.14.92-2.06,2.06-2.06h6.1c1.14,0,2.06.92,2.06,2.06v2.49c.01,1.14-.92,2.06-2.06,2.06Z" style="fill: #fff; stroke-width: 0px;"/>
      <g>
        <path d="m2.54,7.45v-.71c0-.02,0-.05-.02-.06-.07-.07-.13-.14-.21-.2-.03.03-.07.07-.1.1-.04.03-.06.07-.06.13v.82c0,.03.01.06.03.09.04.04.08.08.12.12.06-.06.12-.12.18-.17.05-.04.06-.08.06-.12Z" style="fill: #000; stroke-width: 0px;"/>
        <path d="m2.16,5.99q0,.16.12.27c.04.03.05.04.09,0,.04-.04.08-.08.12-.12s.06-.08.06-.14v-.58c0-.19.02-.14-.11-.27-.13-.13-.09-.12-.22,0-.04.04-.05.08-.05.13v.39h0c-.01.1-.01.21-.01.32Z" style="fill: #000; stroke-width: 0px;"/>
        <path d="m10.25,5.31v.71c0,.03,0,.05.03.07.06.06.13.12.2.19.04-.04.06-.06.09-.09.05-.04.07-.09.07-.15v-.86c-.04-.04-.08-.08-.12-.12s-.04-.03-.07,0c-.05.05-.09.09-.14.14-.05.03-.06.07-.06.11Z" style="fill: #000; stroke-width: 0px;"/>
        <path d="m3.81,7.11v-.44c0-.02,0-.05-.02-.06-.04-.04-.08-.08-.12-.12-.01-.01-.03-.01-.04,0-.05.05-.1.1-.15.14-.04.04-.06.08-.06.14v.7c0,.02.01.04.02.05.06.06.12.12.18.17.02.02.04.02.05,0,.03-.03.06-.06.09-.08.04-.03.05-.07.05-.12v-.38h0Z" style="fill: #000; stroke-width: 0px;"/>
        <path d="m3.43,5.3v.72c0,.03.01.06.03.08l.19.19c.04-.04.08-.08.11-.11.04-.03.05-.07.05-.11v-.85c0-.02,0-.03-.02-.04-.05-.05-.09-.09-.15-.14l-.18.18c-.02.01-.03.04-.03.08Z" style="fill: #000; stroke-width: 0px;"/>
        <path d="m5.96,6.8v-.17c-.04-.04-.08-.09-.12-.13q-.03-.03-.06,0c-.05.05-.1.1-.15.15-.02.02-.03.05-.03.08v.73c0,.03,0,.05.02.07.06.06.13.12.2.19.03-.03.06-.06.09-.08.09-.09.07-.05.07-.17-.02-.22-.02-.45-.02-.67Z" style="fill: #000; stroke-width: 0px;"/>
        <path d="m4.7,7.44v-.59c0-.05.01-.11-.01-.16-.02-.05-.07-.08-.11-.12-.03-.03-.06-.07-.1-.09-.05.02-.07.06-.11.09s-.05.07-.05.12v.88c.05.05.09.1.16.15.06-.06.11-.12.17-.17.04-.02.05-.06.05-.11Z" style="fill: #000; stroke-width: 0px;"/>
        <path d="m6.83,6.11c0,.02.01.03.02.04.04.04.09.09.14.14.06-.06.12-.12.18-.17.03-.03.04-.06.04-.1v-.74c0-.01-.01-.03-.01-.03-.07-.07-.13-.14-.21-.2-.04.04-.07.07-.11.1-.03.03-.05.07-.05.11v.85Z" style="fill: #000; stroke-width: 0px;"/>
        <path d="m4.33,6.14c.05.05.09.1.16.15.06-.06.11-.12.17-.17.03-.03.04-.06.04-.1v-.73c0-.02,0-.03-.01-.05l-.19-.19c-.01-.01-.02-.01-.04,0-.02.02-.05.05-.07.07-.08.08-.07.05-.07.16v.68c0,.06-.01.12.01.18Z" style="fill: #000; stroke-width: 0px;"/>
        <path d="m5.95,5.18c-.03-.05-.08-.09-.12-.13-.02-.02-.03-.02-.05,0-.03.03-.06.06-.08.08-.04.04-.09.07-.1.11-.02.05-.01.1-.01.16v.6c0,.04.01.07.04.1.06.05.11.11.17.18.04-.04.07-.08.11-.1.04-.03.06-.07.06-.13v-.71c-.01-.05.01-.11-.02-.16Z" style="fill: #000; stroke-width: 0px;"/>
        <path d="m7.21,7.42v-.7c0-.02,0-.04-.02-.05-.07-.06-.13-.13-.2-.2-.04.04-.07.07-.11.11-.04.03-.05.07-.05.12v.69c0,.06-.01.12.01.19.05.05.09.09.14.14,0,0,.01,0,.01.01.05-.04.1-.1.15-.15.05-.04.07-.09.07-.16Z" style="fill: #000; stroke-width: 0px;"/>
        <path d="m10.62,7.11v-.35c0-.14.02-.11-.1-.22q-.01-.01-.02-.02c-.03-.03-.05-.03-.08,0-.04.04-.08.08-.12.12-.05.04-.07.08-.07.14v.7c0,.02,0,.05.02.06.06.06.12.12.18.17.02.02.04.01.05,0,.03-.02.05-.05.08-.07.04-.03.05-.07.05-.12.01-.14.01-.27.01-.41h0Z" style="fill: #000; stroke-width: 0px;"/>
        <path d="m8.98,6.02c0,.03,0,.07.03.09.04.04.09.09.13.13.02.02.04.01.05,0,.04-.04.07-.07.11-.11.04-.03.05-.07.05-.12v-.71c0-.03,0-.06-.03-.08-.06-.06-.11-.11-.17-.17-.02-.02-.04-.01-.05,0-.02.02-.05.05-.07.07-.05.04-.07.08-.06.15v.36h0c.01.14.01.26.01.39Z" style="fill: #000; stroke-width: 0px;"/>
        <path d="m8.47,5.19c-.04-.04-.08-.08-.11-.12l-.01-.01c-.02-.02-.03-.02-.05,0-.05.05-.1.1-.15.14-.04.03-.05.07-.05.12v.73c0,.02.01.03.02.04.06.05.11.11.17.17.05-.05.1-.1.14-.14.03-.03.04-.06.04-.1v-.83Z" style="fill: #000; stroke-width: 0px;"/>
        <path d="m3.3,6.19h-.65c-.04,0-.06.01-.09.04-.04.04-.08.08-.13.13-.02.02-.02.03,0,.05.04.04.08.08.12.12.03.04.07.05.11.04h.66c.04,0,.06-.01.09-.04.04-.04.08-.08.13-.13.02-.02.02-.03,0-.05-.04-.04-.08-.08-.12-.12-.04-.03-.07-.04-.12-.04Z" style="fill: #000; stroke-width: 0px;"/>
        <path d="m9.36,7.45v-.74c0-.01-.01-.03-.01-.03-.06-.06-.11-.12-.18-.17-.05.05-.09.09-.14.14-.03.03-.05.07-.05.11v.75c0,.01,0,.03.01.04.06.06.11.11.17.17.05-.05.09-.09.14-.14s.06-.09.06-.13Z" style="fill: #000; stroke-width: 0px;"/>
        <path d="m8.41,6.62c-.04-.04-.08-.08-.13-.12-.06.06-.11.11-.16.16-.02.02-.03.05-.03.08v.73c0,.04.01.06.04.09.05.05.09.11.16.14.05-.05.1-.1.16-.15.02-.02.03-.04.02-.06v-.71c0-.07-.02-.12-.06-.16Z" style="fill: #000; stroke-width: 0px;"/>
        <path d="m10.13,6.19h-.66c-.03,0-.06.01-.08.03-.04.05-.09.09-.13.13-.02.02-.01.03,0,.05.04.04.08.08.12.12.03.03.06.04.1.04h.66c.03,0,.05,0,.07-.02.05-.05.1-.1.15-.15.01-.01.01-.03,0-.04-.04-.04-.09-.08-.12-.13-.04-.02-.07-.03-.11-.03Z" style="fill: #000; stroke-width: 0px;"/>
        <path d="m7.66,6.2h-.34c-.03,0-.06,0-.08.03-.04.04-.09.09-.13.13-.02.02-.02.04,0,.06s.04.04.06.06c.11.11.07.09.22.09h.6c.02,0,.05-.01.06-.02.05-.05.1-.1.15-.15.01-.01.01-.03,0-.04-.04-.04-.08-.08-.12-.12-.03-.03-.06-.04-.1-.04h-.32Z" style="fill: #000; stroke-width: 0px;"/>
        <path d="m3.29,7.6h-.62c-.03,0-.05.01-.07.03-.06.06-.11.11-.17.17-.02.02-.01.03,0,.05.03.03.06.06.09.09s.06.04.1.04h.72c.03,0,.05-.01.07-.03.04-.04.08-.08.13-.13l-.19-.19c-.01-.02-.03-.03-.06-.03Z" style="fill: #000; stroke-width: 0px;"/>
        <path d="m5.14,6.2h-.32c-.03,0-.06,0-.08.02-.05.05-.09.09-.14.14-.02.02-.02.04,0,.05.04.04.08.07.11.11.04.04.08.05.13.05h.65c.02,0,.04-.01.06-.03.05-.05.09-.09.14-.14.02-.02.02-.04,0-.05-.03-.04-.07-.07-.1-.11-.04-.04-.08-.06-.13-.05-.11.01-.22.01-.32.01Z" style="fill: #000; stroke-width: 0px;"/>
        <path d="m7.26,5.12c.02.03.05.04.09.04h.62c.02,0,.04,0,.05-.02l.18-.18c.01-.01.01-.02,0-.03-.03-.03-.07-.06-.1-.1-.03-.03-.06-.04-.1-.04h-.72c-.02,0-.05,0-.06.02-.04.04-.08.08-.12.12-.01.01-.01.03,0,.04.05.04.11.1.16.15Z" style="fill: #000; stroke-width: 0px;"/>
        <path d="m9.43,5.13c.02.02.04.02.06.02h.61c.02,0,.05.01.07-.01.06-.06.13-.12.19-.19.01-.01.01-.02,0-.04-.03-.04-.07-.07-.1-.11-.02-.03-.05-.04-.09-.03h-.61c-.06,0-.12-.02-.17.01s-.09.08-.13.12l-.01.01c-.01.01-.01.03,0,.04.06.07.12.13.18.18Z" style="fill: #000; stroke-width: 0px;"/>
        <path d="m4.77,5.13c.02.02.04.02.06.02h.61c.02,0,.05.01.07-.01.06-.06.13-.12.19-.19.01-.01.01-.02,0-.04-.03-.04-.07-.07-.1-.11-.02-.03-.05-.04-.09-.03h-.62c-.06,0-.11,0-.17.01-.04.04-.08.08-.13.12l-.01.01c-.01.01-.01.03,0,.04.07.07.13.13.19.18Z" style="fill: #000; stroke-width: 0px;"/>
        <path d="m10.2,7.65c-.03-.03-.06-.04-.1-.04h-.61c-.02,0-.04,0-.05.02-.05.05-.11.11-.16.16-.01.01-.03.02-.03.05.03.04.07.07.1.1.03.04.07.05.12.05h.59c.06,0,.12.02.16-.01.05-.03.09-.08.13-.12l.01-.01c.01-.01.01-.03,0-.04-.06-.06-.11-.11-.16-.16Z" style="fill: #000; stroke-width: 0px;"/>
        <path d="m7.93,7.6h-.39c-.08,0-.16-.01-.25.01l-.18.18-.01.01c-.02.02-.02.03,0,.05.03.03.06.06.09.09s.06.04.1.04h.58c.06,0,.13.02.18-.01.06-.03.1-.09.14-.13,0,0,0-.01.01-.02-.06-.06-.12-.11-.17-.17-.02-.04-.05-.05-.1-.05Z" style="fill: #000; stroke-width: 0px;"/>
        <path d="m2.59,5.12c.03.03.06.04.1.04h.5c.05,0,.1.01.15-.01.04-.02.07-.06.1-.09.04-.04.08-.07.11-.11-.02-.05-.07-.08-.11-.12-.03-.03-.06-.04-.1-.04h-.77c-.04.04-.08.08-.12.11l-.01.01c-.02.02-.02.03,0,.05.05.06.1.11.15.16Z" style="fill: #000; stroke-width: 0px;"/>
        <path d="m5.43,7.6h-.61c-.02,0-.04,0-.05.02l-.18.18c-.01.01-.01.02,0,.04.03.03.07.06.1.1.03.03.06.04.1.04h.59c.06,0,.13.02.17-.01.06-.03.11-.09.15-.15-.06-.06-.12-.11-.17-.17-.02-.04-.05-.05-.1-.05Z" style="fill: #000; stroke-width: 0px;"/>
        <path d="m6.39,6.72c-.1,0-.18.09-.18.18,0,.12.1.19.19.19.12,0,.19-.09.19-.19-.01-.11-.1-.18-.2-.18Z" style="fill: #000; stroke-width: 0px;"/>
        <path d="m6.39,5.67c-.1,0-.18.09-.18.18,0,.1.07.19.19.19.13,0,.19-.1.19-.19-.01-.11-.09-.18-.2-.18Z" style="fill: #000; stroke-width: 0px;"/>
      </g>
    </g>
  </g>
</svg>