<?xml version="1.0" encoding="UTF-8"?>
<svg id="_图层_1" data-name="图层 1" xmlns="http://www.w3.org/2000/svg" viewBox="0 0 22.68 22.68">
  <g id="icon-5">
    <path d="m11.34,22.68h0C5.08,22.68,0,17.6,0,11.34h0C0,5.08,5.08,0,11.34,0h0c6.26,0,11.34,5.08,11.34,11.34h0c-.01,6.26-5.08,11.34-11.34,11.34Z" style="fill: #000; stroke-width: 0px;"/>
    <path d="m11.33,3.55c-4.3,0-7.78,3.49-7.78,7.79s3.48,7.8,7.78,7.8,7.79-3.49,7.79-7.8c0-4.3-3.49-7.79-7.79-7.79Zm3.4,2.88c.45-.45,1.18-.45,1.62,0,.45.45.45,1.18,0,1.62-.45.45-1.18.45-1.62,0-.45-.44-.45-1.17,0-1.62Zm-3.39-2.08c.63,0,1.15.51,1.15,1.15,0,.63-.51,1.15-1.15,1.15-.63,0-1.15-.51-1.15-1.15,0-.63.51-1.15,1.15-1.15Zm-5.02,2.08c.45-.45,1.18-.45,1.62,0,.45.45.45,1.18,0,1.62-.45.45-1.18.45-1.62,0-.45-.44-.45-1.17,0-1.62Zm-.94,6.17c-.63,0-1.15-.51-1.15-1.15,0-.63.51-1.15,1.15-1.15.63,0,1.15.51,1.15,1.15s-.51,1.15-1.15,1.15Zm2.56,3.87c-.45.45-1.18.45-1.62,0-.45-.45-.45-1.18,0-1.62.45-.45,1.18-.45,1.62,0,.45.45.45,1.17,0,1.62Zm3.4,2.08c-.63,0-1.15-.51-1.15-1.15,0-.63.51-1.15,1.15-1.15.63,0,1.15.51,1.15,1.15-.01.64-.52,1.15-1.15,1.15Zm-.01-3.14c-2.24,0-4.06-1.82-4.06-4.07s1.82-4.06,4.06-4.06,4.07,1.82,4.07,4.06-1.82,4.07-4.07,4.07Zm5.03,1.06c-.45.45-1.18.45-1.62,0-.45-.45-.45-1.18,0-1.62.45-.45,1.18-.45,1.62,0s.44,1.17,0,1.62Zm.93-3.87c-.63,0-1.15-.51-1.15-1.15,0-.63.51-1.15,1.15-1.15.63,0,1.15.51,1.15,1.15-.01.64-.52,1.15-1.15,1.15Z" style="fill: #fff; stroke-width: 0px;"/>
    <path d="m11.34,19.12h0c-4.3,0-7.78-3.48-7.78-7.78h0c0-4.3,3.48-7.78,7.78-7.78h0c4.3,0,7.78,3.48,7.78,7.78h0c0,4.3-3.49,7.78-7.78,7.78Z" style="fill: none; stroke-width: 0px;"/>
  </g>
</svg>