<?xml version="1.0" encoding="UTF-8"?>
<svg id="_图层_1" data-name="图层 1" xmlns="http://www.w3.org/2000/svg" viewBox="0 0 27.17 27.17">
  <g id="icon-3" transform="rotate(90) translate(0 -27.17)">
    <path d="m0,13.58c0,7.49,6.09,13.59,13.58,13.59s13.59-6.09,13.59-13.59S21.07,0,13.58,0,0,6.09,0,13.58" style="fill: #000; stroke-width: 0px;"/>
    <path d="m22.17,10.23c0-.61-.49-1.1-1.1-1.1H7.57c-.61,0-1.1.49-1.1,1.1v1.8h-.71c-.13,0-.24.11-.24.24v2.79c0,.13.11.24.24.24h.71v1.55c0,.61.49,1.1,1.1,1.1h13.5c.61,0,1.1-.49,1.1-1.1v-6.62Z" style="fill: #fff; stroke-width: 0px;"/>
    <polygon points="8.84 11.9 12.85 13.12 12.91 10.4 18.86 15.29 14.42 13.92 14.36 16.67 8.84 11.9" style="fill: #000; stroke-width: 0px;"/>
  </g>
</svg>