<?xml version="1.0" standalone="no"?><!DOCTYPE svg PUBLIC "-//W3C//DTD SVG 1.1//EN" "http://www.w3.org/Graphics/SVG/1.1/DTD/svg11.dtd"><svg t="1696743343490" class="icon" viewBox="0 0 1024 1024" version="1.1" xmlns="http://www.w3.org/2000/svg" p-id="8379" xmlns:xlink="http://www.w3.org/1999/xlink" width="128" height="128"><path d="M507.469576 172.528485c-188.509091 0-341.333333 152.824242-341.333334 341.333333s152.824242 341.333333 341.333334 341.333334 341.333333-152.824242 341.333333-341.333334-152.824242-341.333333-341.333333-341.333333z m-403.39394 341.333333c0-222.797576 180.596364-403.393939 403.39394-403.393939s403.393939 180.596364 403.393939 403.393939-180.596364 403.393939-403.393939 403.39394-403.393939-180.596364-403.39394-403.39394z" fill="#303133" p-id="8380"></path><path d="M383.348364 343.195152a31.030303 31.030303 0 0 1 31.030303-31.030304h186.181818a31.030303 31.030303 0 0 1 25.413818 48.779637l-81.578667 116.580848a139.512242 139.512242 0 0 1 86.543516 115.743031 139.605333 139.605333 0 0 1-237.692122 112.422788 31.030303 31.030303 0 0 1 43.845818-43.876849 77.575758 77.575758 0 1 0 54.861576-132.437333 31.030303 31.030303 0 0 1-25.413818-48.810667l74.410667-106.371879h-126.603637a31.030303 31.030303 0 0 1-31.030303-31.030303z" fill="#303133" p-id="8381"></path></svg>