<?xml version="1.0" encoding="UTF-8"?>
<svg id="_图层_1" data-name="图层 1" xmlns="http://www.w3.org/2000/svg" viewBox="0 0 21.705 21.715">
  <g id="icon-1">
    <path d="m10.853.213C4.973.213.213,4.973.213,10.853s4.77,10.65,10.64,10.65,10.64-4.77,10.64-10.65S16.733.213,10.853.213Z" style="fill: none; stroke: #000; stroke-miterlimit: 10; stroke-width: .425px;"/>
    <g>
      <path d="m16.803,8.953c.11,0,.2.11.2.25v3.3c0,.14-.09.25-.2.25s-.2-.11-.2-.25v-3.3c0-.14.09-.25.2-.25Z" style="fill: #000; stroke: #000; stroke-miterlimit: 10; stroke-width: .471px;"/>
      <path d="m18.293,9.813c.11,0,.2.11.2.25v1.58c0,.14-.09.25-.2.25s-.2-.11-.2-.25v-1.58c0-.13.09-.25.2-.25Z" style="fill: #000; stroke: #000; stroke-miterlimit: 10; stroke-width: .471px;"/>
      <path d="m6.393,7.333c.11,0,.2.11.2.25v6.55c0,.14-.09.25-.2.25s-.2-.11-.2-.25v-6.55c.01-.14.09-.25.2-.25Z" style="fill: #000; stroke: #000; stroke-miterlimit: 10; stroke-width: .471px;"/>
      <path d="m3.423,9.343c.11,0,.2.11.2.25v2.53c0,.14-.09.25-.2.25s-.2-.11-.2-.25v-2.53c0-.14.09-.25.2-.25Z" style="fill: #000; stroke: #000; stroke-miterlimit: 10; stroke-width: .471px;"/>
      <path d="m4.903,8.303c.11,0,.2.11.2.25v4.62c0,.14-.09.25-.2.25s-.2-.11-.2-.25v-4.62c.01-.14.1-.25.2-.25Z" style="fill: #000; stroke: #000; stroke-miterlimit: 10; stroke-width: .471px;"/>
      <path d="m7.883,8.613c.11,0,.2.11.2.25v3.98c0,.14-.09.25-.2.25s-.2-.11-.2-.25v-3.98c0-.14.09-.25.2-.25Z" style="fill: #000; stroke: #000; stroke-miterlimit: 10; stroke-width: .471px;"/>
      <path d="m15.313,8.043c.11,0,.2.11.2.25v5.13c0,.14-.09.25-.2.25s-.2-.11-.2-.25v-5.13c.01-.14.09-.25.2-.25Z" style="fill: #000; stroke: #000; stroke-miterlimit: 10; stroke-width: .471px;"/>
      <path d="m9.373,9.563c.11,0,.2.11.2.25v2.08c0,.14-.09.25-.2.25s-.2-.11-.2-.25v-2.08c0-.13.09-.25.2-.25Z" style="fill: #000; stroke: #000; stroke-miterlimit: 10; stroke-width: .471px;"/>
      <path d="m13.833,7.203c.11,0,.2.11.2.25v6.81c0,.14-.09.25-.2.25s-.2-.11-.2-.25v-6.81c0-.14.09-.25.2-.25Z" style="fill: #000; stroke: #000; stroke-miterlimit: 10; stroke-width: .471px;"/>
      <path d="m12.343,5.473c.11,0,.2.11.2.25v10.27c0,.14-.09.25-.2.25s-.2-.11-.2-.25V5.723c0-.14.09-.25.2-.25Z" style="fill: #000; stroke: #000; stroke-miterlimit: 10; stroke-width: .471px;"/>
      <path d="m10.853,8.303c.11,0,.2.11.2.25v4.61c0,.14-.09.25-.2.25s-.2-.11-.2-.25v-4.61c.01-.14.09-.25.2-.25Z" style="fill: #000; stroke: #000; stroke-miterlimit: 10; stroke-width: .471px;"/>
    </g>
  </g>
</svg>