<?xml version="1.0" encoding="UTF-8"?>
<svg id="_图层_1" data-name="图层 1" xmlns="http://www.w3.org/2000/svg" viewBox="0 0 27.17 27.16">
  <g id="icon-6">
    <path d="m0,13.58c0,7.49,6.09,13.58,13.58,13.58s13.59-6.09,13.59-13.58S21.07,0,13.58,0C6.09,0,0,6.09,0,13.58" style="fill: #000; stroke-width: 0px;"/>
    <g>
      <path d="m7.25,9.07v9.02c0,.45.36.81.81.81h.16c.18,0,.32-.14.32-.32v-10c0-.18-.14-.32-.32-.32h-.16c-.45,0-.81.37-.81.81Z" style="fill: #fff; stroke: #fff; stroke-miterlimit: 10; stroke-width: .096px;"/>
      <path d="m18.61,8.58v10c0,.18.14.32.32.32h.16c.45,0,.81-.36.81-.81v-9.02c0-.45-.36-.81-.81-.81h-.16c-.18,0-.32.15-.32.32Z" style="fill: #fff; stroke: #fff; stroke-miterlimit: 10; stroke-width: .096px;"/>
      <polygon points="13.58 18.24 8.89 18.24 8.71 18.62 13.58 18.62 18.46 18.62 18.28 18.24 13.58 18.24" style="fill: #fff; stroke: #fff; stroke-miterlimit: 10; stroke-width: .096px;"/>
      <polygon points="8.89 17.51 8.71 18.04 13.58 18.04 18.46 18.04 18.28 17.51 13.58 17.51 8.89 17.51" style="fill: #fff; stroke: #fff; stroke-miterlimit: 10; stroke-width: .096px;"/>
      <polygon points="13.57 16.65 8.89 16.65 8.73 17.3 13.57 17.3 13.6 17.3 18.44 17.3 18.28 16.65 13.6 16.65 13.57 16.65" style="fill: #fff; stroke: #fff; stroke-miterlimit: 10; stroke-width: .096px;"/>
      <polygon points="8.89 15.7 8.71 16.46 13.58 16.46 18.46 16.46 18.28 15.7 13.58 15.7 8.89 15.7" style="fill: #fff; stroke: #fff; stroke-miterlimit: 10; stroke-width: .096px;"/>
      <polygon points="13.58 8.54 8.71 8.54 8.89 8.93 13.58 8.93 18.28 8.93 18.46 8.54 13.58 8.54" style="fill: #fff; stroke: #fff; stroke-miterlimit: 10; stroke-width: .096px;"/>
      <polygon points="8.71 9.13 8.89 9.65 13.58 9.65 18.28 9.65 18.46 9.13 13.58 9.13 8.71 9.13" style="fill: #fff; stroke: #fff; stroke-miterlimit: 10; stroke-width: .096px;"/>
      <polygon points="13.57 9.87 8.73 9.87 8.89 10.52 13.57 10.52 13.6 10.52 18.28 10.52 18.44 9.87 13.6 9.87 13.57 9.87" style="fill: #fff; stroke: #fff; stroke-miterlimit: 10; stroke-width: .096px;"/>
      <polygon points="8.71 10.71 8.89 11.47 13.58 11.47 18.28 11.47 18.46 10.71 13.58 10.71 8.71 10.71" style="fill: #fff; stroke: #fff; stroke-miterlimit: 10; stroke-width: .096px;"/>
      <polygon points="8.71 11.7 8.89 12.46 13.58 12.46 18.28 12.46 18.46 11.7 13.58 11.7 8.71 11.7" style="fill: #fff; stroke: #fff; stroke-miterlimit: 10; stroke-width: .096px;"/>
      <polygon points="8.71 12.69 8.89 13.46 13.58 13.46 18.28 13.46 18.46 12.69 13.58 12.69 8.71 12.69" style="fill: #fff; stroke: #fff; stroke-miterlimit: 10; stroke-width: .096px;"/>
      <polygon points="8.89 13.69 8.71 14.45 13.58 14.45 18.46 14.45 18.28 13.69 13.58 13.69 8.89 13.69" style="fill: #fff; stroke: #fff; stroke-miterlimit: 10; stroke-width: .096px;"/>
      <polygon points="8.89 14.68 8.71 15.44 13.58 15.44 18.46 15.44 18.28 14.68 13.58 14.68 8.89 14.68" style="fill: #fff; stroke: #fff; stroke-miterlimit: 10; stroke-width: .096px;"/>
      <path d="m7.03,16.59v-6.02c0-.12-.1-.22-.22-.22-.44,0-.79.36-.79.79v4.88c0,.44.36.79.79.79.12.01.22-.09.22-.22Z" style="fill: #fff; stroke: #fff; stroke-miterlimit: 10; stroke-width: .096px;"/>
      <path d="m5.85,14.3v-1.43c0-.1-.08-.17-.17-.17h-1.91c-.21,0-.38.17-.38.38v1.02c0,.21.17.38.38.38h1.91c.09-.01.17-.08.17-.18Z" style="fill: #fff; stroke: #fff; stroke-miterlimit: 10; stroke-width: .096px;"/>
      <path d="m20.14,10.58v6.02c0,.12.1.23.22.23h0c.44,0,.79-.36.79-.79v-4.88c0-.44-.36-.79-.79-.79h0c-.12-.02-.22.08-.22.21Z" style="fill: #fff; stroke: #fff; stroke-miterlimit: 10; stroke-width: .096px;"/>
      <path d="m21.32,12.87v1.43c0,.1.08.17.17.17h1.91c.21,0,.38-.17.38-.38v-1.02c0-.21-.17-.38-.38-.38h-1.91c-.09,0-.17.08-.17.18Z" style="fill: #fff; stroke: #fff; stroke-miterlimit: 10; stroke-width: .096px;"/>
    </g>
  </g>
</svg>