<?xml version="1.0" encoding="UTF-8"?>
<svg id="_图层_1" data-name="图层 1" xmlns="http://www.w3.org/2000/svg" viewBox="0 0 14.94 14.95">
  <g id="icon-3">
    <path d="m7.47,0C3.34,0,0,3.34,0,7.47s3.35,7.48,7.47,7.48,7.47-3.35,7.47-7.48S11.6,0,7.47,0Z" style="fill: #000; stroke-width: 0px;"/>
    <g>
      <path d="m10.89,5.42h-2.76c-.29,0-.53.24-.53.53v5.36c0,.29.24.53.53.53h2.76c.29,0,.53-.24.53-.53v-5.36c0-.29-.23-.53-.53-.53Zm-2.83,5.17v-4.19h2.91v4.19h-2.91Zm2.06.62c0,.1-.08.18-.18.18h-.86c-.1,0-.18-.08-.18-.18s.08-.18.18-.18h.86c.1.01.18.08.18.18Zm-.91-5.26c0-.08.07-.15.15-.15h.3c.08,0,.15.07.15.15s-.07.15-.15.15h-.3c-.08,0-.15-.07-.15-.15Z" style="fill: #fff; stroke-width: 0px;"/>
      <path d="m10.08,3.1h-5.85c-.28,0-.5.22-.5.5v7.73c0,.28.23.51.51.51h3.43c-.19-.12-.32-.34-.32-.58v-.34h-2.95v-6.9h5.53v1.17h.66v-1.59c-.01-.27-.23-.5-.51-.5Zm-5.61.64c-.1,0-.18-.08-.18-.18s.08-.18.18-.18.18.08.18.18-.08.18-.18.18Z" style="fill: #fff; stroke-width: 0px;"/>
    </g>
  </g>
</svg>